<svg width="1200" height="760" viewBox="0 0 1200 760" fill="none" xmlns="http://www.w3.org/2000/svg">
  <defs>
    <linearGradient id="bg" x1="88" y1="64" x2="1110" y2="700" gradientUnits="userSpaceOnUse">
      <stop stop-color="#FBF4EC"/>
      <stop offset="1" stop-color="#F5EADF"/>
    </linearGradient>
    <linearGradient id="shell" x1="92" y1="86" x2="1094" y2="668" gradientUnits="userSpaceOnUse">
      <stop stop-color="#FFFDFC"/>
      <stop offset="1" stop-color="#FFF8F2"/>
    </linearGradient>
    <linearGradient id="accent" x1="786" y1="332" x2="1014" y2="610" gradientUnits="userSpaceOnUse">
      <stop stop-color="#E39A72"/>
      <stop offset="1" stop-color="#C86D4A"/>
    </linearGradient>
    <radialGradient id="glowA" cx="0" cy="0" r="1" gradientUnits="userSpaceOnUse" gradientTransform="translate(1032 132) rotate(130.561) scale(250.453 231.163)">
      <stop stop-color="#F4D2B8"/>
      <stop offset="1" stop-color="#F4D2B8" stop-opacity="0"/>
    </radialGradient>
    <radialGradient id="glowB" cx="0" cy="0" r="1" gradientUnits="userSpaceOnUse" gradientTransform="translate(188 660) rotate(42.797) scale(301.028 240.359)">
      <stop stop-color="#E8D5C4"/>
      <stop offset="1" stop-color="#E8D5C4" stop-opacity="0"/>
    </radialGradient>
    <filter id="shadow" x="44" y="40" width="1112" height="680" filterUnits="userSpaceOnUse" color-interpolation-filters="sRGB">
      <feFlood flood-opacity="0" result="BackgroundImageFix"/>
      <feColorMatrix in="SourceAlpha" type="matrix" values="0 0 0 0 0 0 0 0 0 0 0 0 0 0 0 0 0 0 127 0" result="hardAlpha"/>
      <feOffset dy="8"/>
      <feGaussianBlur stdDeviation="14"/>
      <feColorMatrix type="matrix" values="0 0 0 0 0.545098 0 0 0 0 0.403922 0 0 0 0 0.313726 0 0 0 0.12 0"/>
      <feBlend mode="normal" in2="BackgroundImageFix" result="effect1_dropShadow_0_1"/>
      <feBlend mode="normal" in="SourceGraphic" in2="effect1_dropShadow_0_1" result="shape"/>
    </filter>
  </defs>

  <rect width="1200" height="760" rx="32" fill="#F8EFE6"/>
  <circle cx="1032" cy="132" r="248" fill="url(#glowA)"/>
  <circle cx="188" cy="660" r="250" fill="url(#glowB)"/>

  <g filter="url(#shadow)">
    <rect x="72" y="68" width="1056" height="624" rx="36" fill="url(#shell)"/>
    <rect x="72.75" y="68.75" width="1054.5" height="622.5" rx="35.25" stroke="#D8C1AC" stroke-width="1.5"/>
  </g>

  <rect x="106" y="102" width="988" height="556" rx="28" fill="url(#bg)"/>
  <rect x="106.75" y="102.75" width="986.5" height="554.5" rx="27.25" stroke="#E1CCB7" stroke-width="1.5"/>

  <rect x="138" y="136" width="190" height="38" rx="19" fill="#F4E6D8"/>
  <text x="164" y="161" fill="#8C664F" font-size="18" font-family="'Segoe UI', 'PingFang SC', 'Microsoft YaHei', sans-serif" font-weight="700" letter-spacing="0.08em">SELF-MIRROR SKILL</text>

  <text x="138" y="246" fill="#231A15" font-size="76" font-family="'Palatino Linotype', 'Iowan Old Style', 'Source Han Serif SC', 'Noto Serif SC', 'Songti SC', serif" font-weight="700">水仙.skill</text>
  <text x="138" y="300" fill="#7A5B48" font-size="28" font-family="'Segoe UI', 'PingFang SC', 'Microsoft YaHei', sans-serif">把你的语气、偏好和聊天片段，</text>
  <text x="138" y="338" fill="#7A5B48" font-size="28" font-family="'Segoe UI', 'PingFang SC', 'Microsoft YaHei', sans-serif">长成一个可继续修正的镜像伴侣。</text>

  <rect x="138" y="388" width="300" height="70" rx="22" fill="#FFF8F1"/>
  <rect x="138.75" y="388.75" width="298.5" height="68.5" rx="21.25" stroke="#E7D5C5" stroke-width="1.5"/>
  <text x="170" y="430" fill="#392A20" font-size="30" font-family="'Segoe UI', 'PingFang SC', 'Microsoft YaHei', sans-serif" font-weight="700">同频，不装懂</text>

  <rect x="138" y="476" width="300" height="70" rx="22" fill="#FFF8F1"/>
  <rect x="138.75" y="476.75" width="298.5" height="68.5" rx="21.25" stroke="#E7D5C5" stroke-width="1.5"/>
  <text x="170" y="518" fill="#392A20" font-size="30" font-family="'Segoe UI', 'PingFang SC', 'Microsoft YaHei', sans-serif" font-weight="700">可纠偏，可继续长</text>

  <rect x="138" y="564" width="352" height="54" rx="27" fill="#2E221C"/>
  <text x="168" y="598" fill="#FFF6F0" font-size="24" font-family="'Cascadia Code', Consolas, monospace">$shuixian-sweet-demo</text>

  <rect x="520" y="138" width="510" height="154" rx="28" fill="#FFF9F4"/>
  <rect x="520.75" y="138.75" width="508.5" height="152.5" rx="27.25" stroke="#E5D4C4" stroke-width="1.5"/>
  <text x="552" y="194" fill="#241A14" font-size="44" font-family="'Segoe UI', 'PingFang SC', 'Microsoft YaHei', sans-serif" font-weight="700">先试一个更懂你的自己</text>
  <text x="552" y="236" fill="#7B5F4F" font-size="25" font-family="'Segoe UI', 'PingFang SC', 'Microsoft YaHei', sans-serif">public preset → talk → refine</text>
  <text x="552" y="268" fill="#7B5F4F" font-size="25" font-family="'Segoe UI', 'PingFang SC', 'Microsoft YaHei', sans-serif">先确认气质对，再导入真正私密的材料。</text>

  <rect x="552" y="318" width="180" height="42" rx="21" fill="#F3E4D6"/>
  <text x="583" y="345" fill="#855F48" font-size="21" font-family="'Segoe UI', 'PingFang SC', 'Microsoft YaHei', sans-serif" font-weight="700">selective mirror</text>
  <rect x="748" y="318" width="174" height="42" rx="21" fill="#F3E4D6"/>
  <text x="784" y="345" fill="#855F48" font-size="21" font-family="'Segoe UI', 'PingFang SC', 'Microsoft YaHei', sans-serif" font-weight="700">gender-flipped</text>

  <rect x="520" y="382" width="510" height="248" rx="30" fill="#FFFFFF"/>
  <rect x="520.75" y="382.75" width="508.5" height="246.5" rx="29.25" stroke="#E5D4C4" stroke-width="1.5"/>

  <circle cx="560" cy="418" r="8" fill="#EAB28C"/>
  <circle cx="586" cy="418" r="8" fill="#E3C39F"/>
  <circle cx="612" cy="418" r="8" fill="#D58A63"/>
  <text x="938" y="425" fill="#8F705D" font-size="20" font-family="'Segoe UI', 'PingFang SC', 'Microsoft YaHei', sans-serif">mirror chat</text>

  <rect x="780" y="448" width="214" height="78" rx="24" fill="#F4E8DE"/>
  <text x="808" y="482" fill="#5F473A" font-size="23" font-family="'Segoe UI', 'PingFang SC', 'Microsoft YaHei', sans-serif">今天又把自己</text>
  <text x="808" y="512" fill="#5F473A" font-size="23" font-family="'Segoe UI', 'PingFang SC', 'Microsoft YaHei', sans-serif">搞得很累。</text>

  <rect x="552" y="486" width="380" height="118" rx="28" fill="url(#accent)"/>
  <text x="582" y="526" fill="#FFF8F4" font-size="28" font-family="'Segoe UI', 'PingFang SC', 'Microsoft YaHei', sans-serif" font-weight="700">那先别急着总结自己。</text>
  <text x="582" y="562" fill="#FFF8F4" font-size="28" font-family="'Segoe UI', 'PingFang SC', 'Microsoft YaHei', sans-serif" font-weight="700">告诉我，今天是哪一步</text>
  <text x="582" y="598" fill="#FFF8F4" font-size="28" font-family="'Segoe UI', 'PingFang SC', 'Microsoft YaHei', sans-serif" font-weight="700">先把你拖垮的？</text>

  <rect x="552" y="614" width="220" height="12" rx="6" fill="#D9C4B4"/>
  <rect x="552" y="614" width="142" height="12" rx="6" fill="#B88E75"/>
</svg>
